<?xml version="1.0" encoding="UTF-8"?>
<svg id="Layer_2" data-name="Layer 2" xmlns="http://www.w3.org/2000/svg" viewBox="0 0 460 300.6">
  <defs>
    <style>
      .cls-1 {
        fill: #010132;
      }
    </style>
  </defs>
  <g id="gmail">
    <g>
      <polygon class="cls-1" points="167 143.2 0 276.9 0 10.7 99.4 89.5 167 143.2"/>
      <polygon class="cls-1" points="96.1 61.4 18.7 0 441.3 0 363.9 61.4 270.8 135.2 230 166.9 189.2 135.2 96.1 61.4"/>
      <path class="cls-1" d="m276.8,155.9l180.7,144.7H2.5l180.7-144.7,40.7,31.5c.2.2.5.3.7.5,3.3,2.1,7.6,2.1,10.9,0,.2-.2.5-.3.7-.5l40.6-31.5Z"/>
      <polygon class="cls-1" points="460 10.7 460 276.9 293 143.2 360.6 89.5 460 10.7"/>
      <path class="cls-1" d="m457.5,300.6H2.5l180.7-144.7,40.7,31.5c.2.2.5.3.7.5,3.3,2.1,7.6,2.1,10.9,0,.2-.2.5-.3.7-.5l40.7-31.5,180.6,144.7Z"/>
      <polygon class="cls-1" points="460 10.7 460 276.9 293 143.2 360.6 89.5 460 10.7"/>
      <polygon class="cls-1" points="167 143.2 0 276.9 0 10.7 99.4 89.5 167 143.2"/>
      <polygon class="cls-1" points="441.3 0 363.9 61.4 270.8 135.2 230 166.9 189.2 135.2 96.1 61.4 18.7 0 441.3 0"/>
    </g>
  </g>
</svg>