<?xml version="1.0" encoding="UTF-8"?>
<svg id="Layer_2" data-name="Layer 2" xmlns="http://www.w3.org/2000/svg" viewBox="0 0 102 102">
  <defs>
    <style>
      .cls-1 {
        fill: #010132;
      }
    </style>
  </defs>
  <g id="instagram">
    <g>
      <path class="cls-1" d="m80.65,28.87c-1.27-3.31-3.89-5.92-7.19-7.19-2.25-.83-4.63-1.27-7.04-1.3-4-.18-5.2-.22-15.31-.22s-11.32.04-15.31.22c-2.4.03-4.78.47-7.04,1.3-3.31,1.27-5.92,3.89-7.19,7.19-.83,2.25-1.27,4.63-1.3,7.04-.18,4-.22,5.2-.22,15.31s.04,11.32.22,15.31c.03,2.4.47,4.78,1.3,7.04,1.28,3.3,3.89,5.92,7.19,7.19,2.25.83,4.63,1.27,7.04,1.3h0c3.99.19,5.19.22,15.31.22s11.32-.04,15.31-.22c2.4-.03,4.78-.47,7.04-1.3,3.31-1.27,5.92-3.89,7.19-7.19.83-2.25,1.27-4.63,1.3-7.04.18-4,.22-5.19.22-15.31s-.04-11.31-.22-15.31c-.03-2.4-.47-4.78-1.3-7.04Zm-29.55,41.8c-10.75,0-19.46-8.71-19.46-19.46h0c0-10.75,8.71-19.46,19.46-19.46,10.75,0,19.46,8.71,19.46,19.46s-8.71,19.46-19.46,19.46Zm20.23-35.14c-2.51,0-4.55-2.04-4.54-4.55h0c0-2.51,2.04-4.54,4.55-4.55,2.51,0,4.55,2.04,4.54,4.55s-2.04,4.55-4.55,4.54Z"/>
      <path class="cls-1" d="m51.11,38.59c-6.98,0-12.63,5.65-12.63,12.63,0,6.98,5.65,12.63,12.63,12.63h0c6.98,0,12.63-5.65,12.63-12.63s-5.65-12.63-12.63-12.63Z"/>
      <path class="cls-1" d="m101.64,25.86c-.04-3.95-.77-7.85-2.14-11.55-1-2.7-2.59-5.15-4.65-7.16-2.01-2.07-4.45-3.66-7.15-4.65-3.7-1.37-7.61-2.09-11.55-2.14-6.56-.29-8.53-.36-25.14-.36s-18.58.06-25.14.36c-3.95.04-7.85.77-11.55,2.14-2.7.99-5.15,2.59-7.16,4.65-2.06,2.01-3.65,4.46-4.65,7.16-1.37,3.7-2.09,7.6-2.14,11.55-.29,6.56-.36,8.52-.36,25.14s.06,18.58.36,25.14c.04,3.94.77,7.85,2.14,11.55,1,2.7,2.59,5.15,4.66,7.15,2.01,2.06,4.45,3.65,7.15,4.65,3.7,1.37,7.61,2.09,11.55,2.14h0c6.56.3,8.52.36,25.13.36s18.58-.06,25.14-.36c3.95-.04,7.85-.77,11.55-2.14,5.43-2.09,9.72-6.38,11.81-11.81,1.37-3.7,2.09-7.61,2.14-11.55.3-6.56.36-8.53.36-25.14s-.06-18.58-.36-25.14Zm-12.87,40.98c-.06,3.14-.66,6.26-1.76,9.2-1.97,5.09-5.99,9.11-11.08,11.08-2.95,1.1-6.06,1.7-9.2,1.76-4.04.19-5.33.23-15.62.23s-11.58-.04-15.62-.23c-3.14-.06-6.25-.66-9.2-1.76-5.09-1.97-9.11-5.99-11.08-11.08-1.1-2.95-1.7-6.06-1.76-9.2-.19-4.04-.23-5.33-.23-15.62s.04-11.58.23-15.62c.06-3.14.66-6.26,1.76-9.2,1.97-5.09,5.99-9.11,11.08-11.08,2.95-1.1,6.06-1.7,9.2-1.76h0c4.04-.19,5.34-.23,15.63-.23s11.58.04,15.62.23c3.14.06,6.26.66,9.2,1.76,5.09,1.97,9.11,5.99,11.08,11.08,1.1,2.95,1.7,6.06,1.76,9.2.18,4.04.23,5.33.23,15.62s-.04,11.58-.23,15.62Z"/>
    </g>
  </g>
</svg>