<?xml version="1.0" encoding="UTF-8"?>
<svg id="Layer_2" data-name="Layer 2" xmlns="http://www.w3.org/2000/svg" viewBox="0 0 20 19.51">
  <defs>
    <style>
      .cls-1 {
        fill: #010132;
      }
    </style>
  </defs>
  <g id="Githuub">
    <path class="cls-1" d="m10,0C4.48,0,0,4.48,0,10c0,4.42,2.88,8.17,6.85,9.49.48.08.67-.22.67-.48,0-.24-.01-1.02-.01-1.86-2.51.46-3.16-.61-3.36-1.17-.22-.55-.57-1.03-1.03-1.41-.35-.19-.85-.65-.01-.66.65.07,1.22.45,1.54,1.02h0c.58,1.04,1.88,1.4,2.91.83,0,0,0,0,0,0,.04-.51.27-.98.64-1.34-2.22-.25-4.55-1.11-4.55-4.94-.01-.99.35-1.96,1.03-2.69-.31-.86-.27-1.81.1-2.65,0,0,.84-.26,2.75,1.03,1.64-.45,3.36-.45,5,0,1.91-1.3,2.75-1.03,2.75-1.03.37.84.41,1.79.1,2.65.67.73,1.04,1.69,1.02,2.69,0,3.84-2.34,4.69-4.56,4.94.48.49.73,1.16.68,1.85,0,1.34-.01,2.41-.01,2.75,0,.27.21.5.49.5.05,0,.11,0,.16-.02,3.98-1.32,6.86-5.06,6.86-9.49C20,4.48,15.52,0,10,0Z"/>
  </g>
</svg>