<?xml version="1.0" encoding="UTF-8"?>
<svg id="Layer_2" data-name="Layer 2" xmlns="http://www.w3.org/2000/svg" viewBox="0 0 284 284">
  <defs>
    <style>
      .cls-1 {
        fill: #fff;
      }

      .cls-2 {
        letter-spacing: -.02em;
      }

      .cls-3 {
        font-family: Bahnschrift, Bahnschrift;
        font-size: 36px;
        font-variation-settings: 'wght' 400, 'wdth' 100;
      }

      .cls-3, .cls-4 {
        fill: #1a1a1a;
      }

      .cls-5 {
        letter-spacing: 0em;
      }
    </style>
  </defs>
  <g id="Layer_1-2" data-name="Layer 1">
    <g>
      <circle class="cls-1" cx="142" cy="142" r="142"/>
      <path class="cls-4" d="m165,236.39c32.57-32.57,64.92-64.92,97.39-97.39-1.43-1.42-2.68-2.88-4.15-4.08-2.52-2.06-3.91-4.46-3.8-7.86.07-2.2-.5-4.43-.74-6.32,6.01,6.01,12.19,12.19,18.38,18.38.12-.05.24-.1.36-.15-.28.31-.56.63-.85.92-30.24,30.24-60.48,60.48-90.69,90.74-.92.92-2,1.23-3.11,1.6-3.97,1.34-7.95,2.65-11.92,3.97-.18.06-.38.08-.87.18Z"/>
      <path class="cls-4" d="m20.72,138.85c2.33,2.32,4.39,4.43,6.52,6.48.79.76,1.16,1.55,1.24,2.68.24,3.18.66,6.35.96,9.13-5.97-5.97-12.17-12.17-18.63-18.63.21-.15.73-.41,1.12-.8,29.93-29.91,59.85-59.84,89.8-89.74.79-.79,1.79-1.49,2.83-1.87,4.2-1.52,8.45-2.91,12.68-4.33.22-.07.46-.1.71-.15-32.4,32.4-64.76,64.76-97.24,97.24Z"/>
      <path class="cls-4" d="m123.3,26.84c6.02-6.03,12.22-12.23,18.52-18.52.13.12.45.41.75.71,29.17,29.16,58.33,58.33,87.49,87.5.5.5,1.01,1.08,1.24,1.72,1.68,4.61,3.3,9.24,4.93,13.87.06.18.07.38.13.75-31.61-31.61-63.11-63.11-94.69-94.69-2.21,2.21-4.32,4.27-6.35,6.4-.79.83-1.62,1.2-2.79,1.29-3.18.24-6.34.66-9.21.97Z"/>
      <path class="cls-4" d="m46.85,165.01c31.67,31.67,63.14,63.14,94.73,94.73,1.64-1.65,3.36-3.11,4.75-4.83,1.78-2.21,3.94-3.03,6.71-3.06,2.38-.02,4.75-.53,6.81-.78-6.01,6.01-12.2,12.2-18.5,18.5-.06-.05-.38-.33-.67-.63-29.19-29.19-58.39-58.38-87.57-87.59-.5-.5-.99-1.09-1.22-1.74-1.68-4.61-3.29-9.24-4.92-13.87-.05-.14-.05-.31-.11-.74Z"/>
      <path class="cls-4" d="m242.65,153.31c.24-2.88.52-5.62.68-8.36,2.48-42.3-20.76-82.89-59.97-100.93-.4-.18-.83-.36-1.13-.66-3.16-3.16-6.31-6.34-9.66-9.71.58.15.93.22,1.27.32,38.63,11.71,68.07,44.51,75.64,84.27,1.54,8.07,2.15,16.22,1.94,24.44-.04,1.4-.4,2.47-1.47,3.46-2.2,2.03-4.26,4.21-6.38,6.33-.27.27-.56.52-.92.84Z"/>
      <path class="cls-4" d="m40.56,124.64c-.24,2.88-.52,5.61-.68,8.36-2.48,42.3,20.76,82.89,59.97,100.93.4.18.83.36,1.13.66,3.16,3.16,6.31,6.34,9.66,9.72-.58-.15-.93-.22-1.27-.32-38.63-11.71-68.07-44.51-75.64-84.27-1.54-8.07-2.15-16.22-1.94-24.44.04-1.4.4-2.47,1.47-3.46,2.2-2.03,4.26-4.21,6.38-6.33.27-.27.56-.52.92-.84Z"/>
      <path class="cls-4" d="m36.5,107.86c1.39-5.46,3.29-10.67,5.75-15.65,16.32-33.03,42.54-53.39,78.55-61.07,8.19-1.75,16.53-2.22,24.91-1.97,1.15.04,2.02.35,2.83,1.22,1.59,1.72,3.3,3.33,5.13,5.15-2.29-.17-4.3-.35-6.31-.47-15.2-.9-29.84,1.6-43.91,7.39-24.99,10.29-43.36,29.46-53.68,51.33-.46.98-1.15,1.92-1.91,2.7-3.46,3.54-6.99,7.02-10.49,10.53-.28.28-.57.54-.85.82Z"/>
      <path class="cls-4" d="m180.07,235.37c.16.26.3.49.45.74.13-.08.23-.13.33-.2,1.24-.85,2.39-1.87,3.72-2.52,22.05-10.74,38.27-27.24,48.91-49.3.46-.95,1.11-1.85,1.84-2.61,3.49-3.57,7.04-7.08,10.58-10.61.27-.27.57-.53,1.05-.69-.66,1.99-1.29,4-2,5.98-13.02,36.52-45.06,63.76-83.16,70.77-8.01,1.47-16.07,2.06-24.21,1.84-1.19-.03-2.1-.36-2.94-1.26-1.57-1.69-3.26-3.27-4.87-5.03,17.39,1.87,34.14-.49,50.3-7.11Z"/>
      <text class="cls-3" transform="translate(47.56 149.47)"><tspan x="0" y="0">F</tspan><tspan class="cls-5" x="20.13" y="0">r</tspan><tspan x="35.14" y="0">eezeFl</tspan><tspan class="cls-2" x="141.4" y="0">o</tspan><tspan x="160.31" y="0">w</tspan></text>
    </g>
  </g>
</svg>